<svg width="220" height="194" viewBox="0 0 220 194" fill="none" xmlns="http://www.w3.org/2000/svg">
<path fill-rule="evenodd" clip-rule="evenodd" d="M110.341 193.042C154.69 173.802 210.979 127.614 217.341 94.042H192.841C192.498 94.042 191.156 96.099 189.379 98.8228C185.973 104.043 180.969 111.713 178.341 112.042C176.054 112.328 172.462 101.181 169.336 91.4832C166.993 84.2126 164.912 77.7562 163.841 77.542C162.865 77.3468 160.974 85.3818 158.645 95.2804C155.009 110.737 150.303 130.737 146.341 131.042C142.501 131.337 138.837 108.609 135.862 90.1566C133.8 77.3674 132.069 66.6326 130.841 67.042C127.841 68.042 118.341 99.542 118.341 99.542H109.341C109.341 99.542 103.341 109.042 101.341 109.042C99.3406 109.042 92.8406 99.542 92.8406 99.542L57.3406 99.042C57.3406 99.042 46.8406 75.042 44.8406 75.042C43.669 75.042 40.0954 83.2775 37.1349 90.1C35.0416 94.9242 33.2548 99.042 32.8406 99.042C55.1633 143.672 73.5141 162.873 110.341 193.042Z" fill="#00A859"/>
<path d="M4.34058 99.542C17.8406 139.542 53.4346 161.923 110.341 193.042C73.5141 162.873 55.1633 143.672 32.8406 99.042C31.8406 99.042 4.34058 99.542 4.34058 99.542Z" fill="#5ABA6B"/>
<path fill-rule="evenodd" clip-rule="evenodd" d="M28.3406 92.5421C28.3406 92.5421 43.3406 61.542 45.8406 61.542C48.3406 61.542 61.3406 92.5421 61.3406 92.5421H95.8406C95.8406 92.5421 99.8406 97.542 101.341 97.542C102.841 97.542 105.841 92.5421 105.841 92.5421H114.341C114.341 92.5421 127.841 48.542 131.841 48.542C133.935 48.542 137.539 66.3695 140.855 82.7772C143.871 97.6994 146.65 111.447 147.841 109.542C148.735 108.112 150.588 100.862 152.783 92.2751C156.726 76.8516 161.771 57.1149 164.341 59.042C166.437 60.6144 170.045 71.8014 173.363 82.0927C176.376 91.4366 179.151 100.042 180.341 100.042C182.841 100.042 188.341 87.042 188.341 87.042H218.841C221.841 35.542 200.657 6.9185 161.841 0.0420483C137.864 0.0420483 128.607 10.4132 112.953 27.9514C111.632 29.4312 110.265 30.9621 108.841 32.542C93.2471 11.2255 82.5707 2.47279 66.3406 0.467927C62.9484 0.0488985 59.3136 -0.075361 55.3406 0.0420483L66.3406 0.467927C32.526 23.8089 28.4395 46.7833 28.3406 92.5421Z" fill="#00A859"/>
<path d="M55.3406 0.0420483C11.8406 7.54205 -5.15942 49.5421 1.34057 92.5421H28.3406C28.4395 46.7833 32.526 23.8089 66.3406 0.467927L55.3406 0.0420483Z" fill="#5ABA6B"/>
</svg>
